<!-- Generated by IcoMoon.io -->
<svg version="1.1" xmlns="http://www.w3.org/2000/svg" width="22" height="14" viewBox="0 0 22 14">
<title>random-icon-original</title>
<path fill="#d1eefb" d="M19.792 9.858c-0.048-0.048-0.114-0.077-0.187-0.077-0.146 0-0.265 0.119-0.265 0.265v0.597h-2.541c-1.367 0-2.010-0.411-2.628-1.351l-1.866 1.682c0.008 0.125 0.049 0.238 0.115 0.333l-0.001-0.002c1.001 1.281 2.282 2.015 3.951 1.972 0.651-0.016 2.098-0.006 2.968 0v0.459c0 0.146 0.119 0.265 0.265 0.265 0.073 0 0.139-0.030 0.187-0.077v0l1.843-1.843c0.048-0.048 0.077-0.114 0.077-0.187s-0.030-0.139-0.077-0.187v0z"></path>
<path fill="#d1eefb" d="M8.175 9.117c-0.478 0.681-1.159 0.993-2.048 0.966-1.225-0.036-3.417-0.032-4.822-0.025-0.72 0.007-1.302 0.591-1.305 1.312v0c0 0.727 0.59 1.317 1.317 1.317v0 0c1.621-0.011 3.219-0.033 4.812 0.022 1.474 0.052 2.68-0.429 3.634-1.418l-1.317-2.561c-0.113 0.158-0.154 0.217-0.27 0.387z"></path>
<path fill="#d1eefb" d="M1.325 3.981c1.31 0 2.607 0.007 3.902 0l1.317-2.613c-1.734-0.033-3.471-0.017-5.227-0.010-0.709 0.020-1.275 0.6-1.275 1.311s0.567 1.291 1.274 1.311l0.002 0z"></path>
<path fill="#d1eefb" d="M19.34 3.444v0.507c0 0.146 0.119 0.265 0.265 0.265 0.073 0 0.139-0.030 0.187-0.077v0l1.844-1.845c0.048-0.048 0.077-0.114 0.077-0.187s-0.030-0.139-0.077-0.187v0l-1.844-1.842c-0.048-0.048-0.114-0.077-0.187-0.077-0.146 0-0.265 0.119-0.265 0.265v0.507h-1.837l0.345 2.657c0.209 0.016 1.027 0.016 1.491 0.016z"></path>
<path fill="#fff" d="M18.022 2.687q-0.091 1.959-2.725 5.369-2.725 3.555-4.615 3.555-1.169 0-1.977-2.166l-1.081-3.974q-0.601-2.167-1.289-2.167-0.15 0-1.049 0.632l-0.629-0.81q0.99-0.875 1.952-1.746 1.317-1.145 1.981-1.204c0.944-0.091 1.777 1.224 1.925 2.142q0.39 2.473 0.541 3.076 0.45 2.051 0.991 2.051 0.419 0 1.261-1.331t0.901-2.026q0.12-1.148-0.901-1.148c-0.36 0.005-0.699 0.086-1.005 0.226l0.016-0.006q0.986-3.242 3.766-3.149 2.057 0.056 1.938 2.68z"></path>
</svg>
