<!-- Generated by IcoMoon.io -->
<svg version="1.1" xmlns="http://www.w3.org/2000/svg" width="31" height="20" viewBox="0 0 31 20">
<title>random-icon</title>
<path fill="#d1eefb" d="M28.275 14.082c-0.069-0.068-0.163-0.111-0.268-0.111-0.209 0-0.379 0.169-0.379 0.378v0.852h-3.63c-1.952 0-2.871-0.588-3.754-1.931l-2.666 2.402c0.011 0.178 0.070 0.34 0.164 0.476l-0.002-0.003c1.43 1.831 3.26 2.878 5.644 2.818 0.931-0.023 2.997-0.009 4.24 0v0.656c0 0.209 0.17 0.378 0.379 0.378 0.105 0 0.199-0.042 0.268-0.111v0l2.632-2.632c0.068-0.069 0.111-0.163 0.111-0.268s-0.042-0.199-0.111-0.268v0z"></path>
<path fill="#d1eefb" d="M11.679 13.025c-0.683 0.973-1.656 1.418-2.926 1.381-1.75-0.052-4.881-0.046-6.889-0.036-1.029 0.010-1.86 0.844-1.864 1.874v0c0 1.039 0.842 1.881 1.881 1.881v0 0c2.315-0.016 4.599-0.048 6.874 0.032 2.106 0.074 3.829-0.612 5.191-2.026l-1.881-3.658c-0.162 0.226-0.22 0.31-0.386 0.553z"></path>
<path fill="#d1eefb" d="M1.893 5.687c1.871 0 3.724 0.010 5.575 0l1.881-3.732c-2.478-0.048-4.958-0.025-7.467-0.014-1.012 0.029-1.822 0.857-1.822 1.873s0.81 1.844 1.819 1.873l0.003 0z"></path>
<path fill="#d1eefb" d="M27.628 4.92v0.724c0 0.209 0.17 0.378 0.379 0.378 0.105 0 0.199-0.042 0.268-0.111v0l2.634-2.635c0.068-0.069 0.111-0.163 0.111-0.268s-0.042-0.199-0.111-0.268v0l-2.634-2.631c-0.069-0.068-0.163-0.111-0.268-0.111-0.209 0-0.379 0.169-0.379 0.378v0.724h-2.624l0.493 3.796c0.298 0.023 1.467 0.023 2.13 0.023z"></path>
<path fill="#fff" d="M25.745 3.838q-0.13 2.799-3.893 7.67-3.893 5.078-6.593 5.078-1.67 0-2.825-3.094l-1.544-5.677q-0.858-3.096-1.841-3.096-0.214 0-1.499 0.903l-0.899-1.158q1.414-1.25 2.789-2.495 1.881-1.635 2.831-1.721c1.349-0.13 2.538 1.748 2.75 3.059q0.557 3.533 0.773 4.394 0.643 2.931 1.415 2.931 0.599 0 1.802-1.902t1.287-2.894q0.171-1.64-1.287-1.64c-0.514 0.008-0.999 0.122-1.436 0.323l0.022-0.009q1.408-4.631 5.381-4.499 2.939 0.080 2.768 3.829z"></path>
</svg>
