<svg xmlns="http://www.w3.org/2000/svg" viewBox="0 0 214.34 138.2"><defs><style>.cls-1{fill:#d1eefb;}.cls-2{fill:#fff;}</style></defs><title>Asset 2</title><g id="Layer_2" data-name="Layer 2"><g id="Layer_1-2" data-name="Layer 1"><path class="cls-1" d="M195.38,97.31a2.62,2.62,0,0,0-4.47,1.85v5.89H165.83c-13.49,0-19.84-4.06-25.94-13.34l-18.42,16.6a6.52,6.52,0,0,0,1.12,3.27c9.88,12.65,22.53,19.89,39,19.47,6.43-.16,20.71-.06,29.3,0v4.53a2.62,2.62,0,0,0,4.47,1.85l18.19-18.19a2.62,2.62,0,0,0,0-3.7Z"/><path class="cls-1" d="M80.7,90c-4.72,6.72-11.44,9.8-20.22,9.54-12.09-.36-33.73-.32-47.6-.25A13,13,0,0,0,0,112.24H0a13,13,0,0,0,13,13h0c16-.11,31.78-.33,47.5.22,14.55.51,26.46-4.23,35.87-14l-13-25.28C82.25,87.74,81.85,88.32,80.7,90Z"/><path class="cls-1" d="M13.08,39.3c12.93,0,25.73.07,38.52,0l13-25.79c-17.12-.33-34.26-.17-51.6-.1A12.95,12.95,0,0,0,13,39.3Z"/><path class="cls-1" d="M190.91,34v5a2.62,2.62,0,0,0,4.47,1.85l18.2-18.21a2.62,2.62,0,0,0,0-3.7L195.38.76a2.62,2.62,0,0,0-4.47,1.85v5H172.78l3.41,26.23C178.25,34,186.33,34,190.91,34Z"/><path class="cls-2" d="M177.9,26.52Q177,45.86,151,79.52q-26.9,35.09-45.56,35.09-11.54,0-19.52-21.38L75.25,54Q69.32,32.61,62.53,32.61q-1.48,0-10.36,6.24l-6.21-8q9.77-8.64,19.27-17.24,13-11.3,19.56-11.89c9.32-.9,17.54,12.08,19,21.14q3.85,24.41,5.34,30.36,4.44,20.25,9.78,20.25,4.14,0,12.45-13.14t8.89-20Q141.43,29,131.36,29a24.66,24.66,0,0,0-9.77,2.17q9.73-32,37.18-31.09,20.31.55,19.13,26.46"/></g></g></svg>
